<svg width="55" height="55" viewBox="0 0 55 55" fill="none" xmlns="http://www.w3.org/2000/svg">
<mask id="mask0_206_133" style="mask-type:alpha" maskUnits="userSpaceOnUse" x="0" y="0" width="55" height="55">
<rect width="55" height="55" fill="#D9D9D9"/>
</mask>
<g mask="url(#mask0_206_133)">
<path d="M20.2325 23.9491C18.2322 21.9488 17.2321 19.5263 17.2321 16.6816C17.2321 13.8369 18.2322 11.42 20.2325 9.43079C22.2327 7.44124 24.6552 6.44646 27.4999 6.44646C30.3446 6.44646 32.7671 7.44124 34.7674 9.43079C36.7676 11.42 37.7677 13.8369 37.7677 16.6816C37.7677 19.5263 36.7676 21.9488 34.7674 23.9491C32.7671 25.9493 30.3446 26.9494 27.4999 26.9494C24.6552 26.9494 22.2327 25.9493 20.2325 23.9491ZM8.06543 47.4851V39.9025C8.06543 38.4095 8.45368 37.0324 9.23017 35.7712C10.0063 34.51 11.0454 33.5498 12.3474 32.8906C14.7804 31.6848 17.2623 30.7752 19.793 30.1618C22.3238 29.548 24.8928 29.2411 27.4999 29.2411C30.1502 29.2411 32.7408 29.5425 35.2715 30.1452C37.8023 30.7483 40.2626 31.6525 42.6524 32.8579C43.9545 33.5172 44.9935 34.472 45.7696 35.7225C46.5461 36.973 46.9344 38.3663 46.9344 39.9025V47.4851H8.06543Z" fill="white"/>
</g>
</svg>
