<svg width="160" height="160" viewBox="0 0 160 160" fill="none" xmlns="http://www.w3.org/2000/svg">
<rect width="160" height="160" rx="16" fill="white"/>
<g fill="black">
<rect x="14" y="14" width="8" height="8"/><rect x="22" y="14" width="8" height="8"/><rect x="30" y="14" width="8" height="8"/><rect x="38" y="14" width="8" height="8"/><rect x="46" y="14" width="8" height="8"/><rect x="54" y="14" width="8" height="8"/><rect x="62" y="14" width="8" height="8"/><rect x="78" y="14" width="8" height="8"/><rect x="94" y="14" width="8" height="8"/><rect x="102" y="14" width="8" height="8"/><rect x="110" y="14" width="8" height="8"/><rect x="118" y="14" width="8" height="8"/><rect x="126" y="14" width="8" height="8"/><rect x="134" y="14" width="8" height="8"/><rect x="142" y="14" width="8" height="8"/>
<rect x="14" y="22" width="8" height="8"/><rect x="62" y="22" width="8" height="8"/><rect x="86" y="22" width="8" height="8"/><rect x="94" y="22" width="8" height="8"/><rect x="142" y="22" width="8" height="8"/>
<rect x="14" y="30" width="8" height="8"/><rect x="30" y="30" width="8" height="8"/><rect x="38" y="30" width="8" height="8"/><rect x="46" y="30" width="8" height="8"/><rect x="62" y="30" width="8" height="8"/><rect x="78" y="30" width="8" height="8"/><rect x="94" y="30" width="8" height="8"/><rect x="110" y="30" width="8" height="8"/><rect x="118" y="30" width="8" height="8"/><rect x="126" y="30" width="8" height="8"/><rect x="142" y="30" width="8" height="8"/>
<rect x="14" y="38" width="8" height="8"/><rect x="30" y="38" width="8" height="8"/><rect x="38" y="38" width="8" height="8"/><rect x="46" y="38" width="8" height="8"/><rect x="62" y="38" width="8" height="8"/><rect x="86" y="38" width="8" height="8"/><rect x="94" y="38" width="8" height="8"/><rect x="110" y="38" width="8" height="8"/><rect x="118" y="38" width="8" height="8"/><rect x="126" y="38" width="8" height="8"/><rect x="142" y="38" width="8" height="8"/>
<rect x="14" y="46" width="8" height="8"/><rect x="30" y="46" width="8" height="8"/><rect x="38" y="46" width="8" height="8"/><rect x="46" y="46" width="8" height="8"/><rect x="62" y="46" width="8" height="8"/><rect x="78" y="46" width="8" height="8"/><rect x="86" y="46" width="8" height="8"/><rect x="110" y="46" width="8" height="8"/><rect x="118" y="46" width="8" height="8"/><rect x="126" y="46" width="8" height="8"/><rect x="142" y="46" width="8" height="8"/>
<rect x="14" y="54" width="8" height="8"/><rect x="62" y="54" width="8" height="8"/><rect x="94" y="54" width="8" height="8"/><rect x="142" y="54" width="8" height="8"/>
<rect x="14" y="62" width="8" height="8"/><rect x="22" y="62" width="8" height="8"/><rect x="30" y="62" width="8" height="8"/><rect x="38" y="62" width="8" height="8"/><rect x="46" y="62" width="8" height="8"/><rect x="54" y="62" width="8" height="8"/><rect x="62" y="62" width="8" height="8"/><rect x="78" y="62" width="8" height="8"/><rect x="94" y="62" width="8" height="8"/><rect x="102" y="62" width="8" height="8"/><rect x="110" y="62" width="8" height="8"/><rect x="118" y="62" width="8" height="8"/><rect x="126" y="62" width="8" height="8"/><rect x="134" y="62" width="8" height="8"/><rect x="142" y="62" width="8" height="8"/>
<rect x="78" y="70" width="8" height="8"/><rect x="86" y="70" width="8" height="8"/>
<rect x="14" y="78" width="8" height="8"/><rect x="30" y="78" width="8" height="8"/><rect x="38" y="78" width="8" height="8"/><rect x="54" y="78" width="8" height="8"/><rect x="62" y="78" width="8" height="8"/><rect x="78" y="78" width="8" height="8"/><rect x="94" y="78" width="8" height="8"/><rect x="102" y="78" width="8" height="8"/><rect x="118" y="78" width="8" height="8"/><rect x="134" y="78" width="8" height="8"/><rect x="142" y="78" width="8" height="8"/>
<rect x="22" y="86" width="8" height="8"/><rect x="46" y="86" width="8" height="8"/><rect x="70" y="86" width="8" height="8"/><rect x="86" y="86" width="8" height="8"/><rect x="94" y="86" width="8" height="8"/><rect x="118" y="86" width="8" height="8"/><rect x="126" y="86" width="8" height="8"/>
<rect x="14" y="94" width="8" height="8"/><rect x="22" y="94" width="8" height="8"/><rect x="30" y="94" width="8" height="8"/><rect x="38" y="94" width="8" height="8"/><rect x="46" y="94" width="8" height="8"/><rect x="54" y="94" width="8" height="8"/><rect x="62" y="94" width="8" height="8"/><rect x="70" y="94" width="8" height="8"/><rect x="86" y="94" width="8" height="8"/><rect x="102" y="94" width="8" height="8"/><rect x="110" y="94" width="8" height="8"/><rect x="126" y="94" width="8" height="8"/><rect x="134" y="94" width="8" height="8"/>
</g>
<rect x="65" y="65" width="30" height="30" rx="8" fill="#EB140A"/>
<text x="80" y="87" font-family="Arial, sans-serif" font-weight="700" font-size="22" fill="white" text-anchor="middle">A</text>
</svg>
