<svg width="236" height="182" viewBox="52 50 236 182" fill="none" xmlns="http://www.w3.org/2000/svg">
<path d="M170 63.9254L278 222.433H62L170 63.9254Z" fill="#E3000B" fill-opacity="0.31" stroke="white" stroke-width="3"/>
<path d="M170 90.3433L254 206.582H86L170 90.3433Z" fill="#E3000B" fill-opacity="0.1" stroke="white" stroke-width="2"/>
<path d="M170 116.761L230 190.731H110L170 116.761Z" fill="#FDC9C4" fill-opacity="0.2" stroke="#FDC9C4" stroke-width="1.5"/>
<path d="M170 70.5299C175.799 70.5299 180.5 66.3902 180.5 61.2836C180.5 56.177 175.799 52.0373 170 52.0373C164.201 52.0373 159.5 56.177 159.5 61.2836C159.5 66.3902 164.201 70.5299 170 70.5299Z" fill="white"/>
<path d="M62 229.037C66.1421 229.037 69.5 226.08 69.5 222.433C69.5 218.785 66.1421 215.828 62 215.828C57.8579 215.828 54.5 218.785 54.5 222.433C54.5 226.08 57.8579 229.037 62 229.037Z" fill="white"/>
<path d="M278 229.037C282.142 229.037 285.5 226.08 285.5 222.433C285.5 218.785 282.142 215.828 278 215.828C273.858 215.828 270.5 218.785 270.5 222.433C270.5 226.08 273.858 229.037 278 229.037Z" fill="white"/>
</svg>
