<svg xmlns="http://www.w3.org/2000/svg" width="70" height="62" viewBox="0 0 70 62" fill="none">
  <path d="M35 4.02985L66.5 57.7612H3.5L35 4.02985Z" fill="#B90A05" fill-opacity="0.21" stroke="#B90A05" stroke-width="3"/>
  <path d="M35 12.9851L59.5 52.3881H10.5L35 12.9851Z" fill="#E3000B" fill-opacity="0.1" stroke="#B90A05" stroke-width="2"/>
  <path d="M35 21.9403L52.5 47.0149H17.5L35 21.9403Z" fill="#E3000B" fill-opacity="0.1" stroke="#B90A05" stroke-width="1.5"/>
  <path d="M35 6.26866C36.6914 6.26866 38.0625 4.86537 38.0625 3.13433C38.0625 1.40329 36.6914 0 35 0C33.3086 0 31.9375 1.40329 31.9375 3.13433C31.9375 4.86537 33.3086 6.26866 35 6.26866Z" fill="#B90A05"/>
  <path d="M3.5 60C4.70812 60 5.6875 58.9977 5.6875 57.7612C5.6875 56.5247 4.70812 55.5224 3.5 55.5224C2.29188 55.5224 1.3125 56.5247 1.3125 57.7612C1.3125 58.9977 2.29188 60 3.5 60Z" fill="#B90A05"/>
  <path d="M66.5 60C67.7081 60 68.6875 58.9977 68.6875 57.7612C68.6875 56.5247 67.7081 55.5224 66.5 55.5224C65.2919 55.5224 64.3125 56.5247 64.3125 57.7612C64.3125 58.9977 65.2919 60 66.5 60Z" fill="#B90A05"/>
  <path d="M29.75 33.5821L33.25 37.1642L41.125 29.1045" stroke="white" stroke-width="3" stroke-linecap="round" stroke-linejoin="round"/>
</svg>