<svg width="72" height="60" viewBox="0 0 72 60" fill="none" xmlns="http://www.w3.org/2000/svg">
<path d="M36 11.2812L58.8235 49.3235H13.1765L36 11.2812Z" fill="#BCBCBC" fill-opacity="0.4" stroke="#BCBCBC" stroke-width="2"/>
<path d="M36 24.0617L49.4118 46.2853H22.5882L36 24.0617Z" fill="#BCBCBC" fill-opacity="0.5" stroke="#999999" stroke-width="1.5"/>
<path d="M36 12.9412C37.7124 12.9412 39.1029 11.6932 39.1029 10.1521C39.1029 8.611 37.7124 7.36304 36 7.36304C34.2876 7.36304 32.8971 8.611 32.8971 10.1521C32.8971 11.6932 34.2876 12.9412 36 12.9412Z" fill="#999999"/>
<path d="M13.1765 51.0833C14.8889 51.0833 16.2794 49.8353 16.2794 48.2942C16.2794 46.7531 14.8889 45.5052 13.1765 45.5052C11.464 45.5052 10.0735 46.7531 10.0735 48.2942C10.0735 49.8353 11.464 51.0833 13.1765 51.0833Z" fill="#999999"/>
<path d="M58.8235 51.0833C60.536 51.0833 61.9265 49.8353 61.9265 48.2942C61.9265 46.7531 60.536 45.5052 58.8235 45.5052C57.1111 45.5052 55.7206 46.7531 55.7206 48.2942C55.7206 49.8353 57.1111 51.0833 58.8235 51.0833Z" fill="#999999"/>
</svg>
