<svg xmlns="http://www.w3.org/2000/svg" width="102" height="90" viewBox="0 0 102 90" fill="none">
  <path d="M51.0001 5.91046L96.9001 84.7164H5.1001L51.0001 5.91046Z" fill="black" fill-opacity="0.08" stroke="#999999" stroke-width="3"/>
  <path d="M51 19.0448L86.7001 76.8358H15.3L51 19.0448Z" fill="#BCBCBC" stroke="#999999" stroke-width="2"/>
  <path d="M51 32.1791L76.5 68.9553H25.5L51 32.1791Z" fill="black" fill-opacity="0.08" stroke="black" stroke-opacity="0.07" stroke-width="1.5"/>
  <path d="M51.0001 9.19403C53.4647 9.19403 55.4626 7.13588 55.4626 4.59701C55.4626 2.05815 53.4647 0 51.0001 0C48.5355 0 46.5376 2.05815 46.5376 4.59701C46.5376 7.13588 48.5355 9.19403 51.0001 9.19403Z" fill="#999999"/>
  <path d="M5.1001 88C6.86051 88 8.2876 86.5299 8.2876 84.7164C8.2876 82.903 6.86051 81.4329 5.1001 81.4329C3.33969 81.4329 1.9126 82.903 1.9126 84.7164C1.9126 86.5299 3.33969 88 5.1001 88Z" fill="#999999"/>
  <path d="M96.8999 88C98.6603 88 100.087 86.5299 100.087 84.7164C100.087 82.903 98.6603 81.4329 96.8999 81.4329C95.1395 81.4329 93.7124 82.903 93.7124 84.7164C93.7124 86.5299 95.1395 88 96.8999 88Z" fill="#999999"/>
</svg>